<svg width="304" height="455" viewBox="0 0 304 455" fill="none" xmlns="http://www.w3.org/2000/svg">
<path d="M74.5828 289.461C71.8168 289.276 69.0509 290.552 67.1952 292.607C64.9544 291.147 61.8833 291.077 59.5775 292.432C57.2717 293.788 55.8412 296.504 56.0263 299.175C54.7359 299.38 53.5604 300.135 52.7552 301.165C51.2546 303.086 51.1596 306.042 52.6801 307.948C54.2007 309.853 57.2567 310.379 59.2324 308.948C60.963 310.854 63.3989 312.104 65.9598 312.394C68.5207 312.679 71.1716 312.004 73.2823 310.529C74.7629 312.339 77.2287 313.285 79.5395 312.929C81.8503 312.574 83.9211 310.939 84.7964 308.768C85.1315 307.938 85.2965 307.017 85.1165 306.137C84.9364 305.257 84.3712 304.437 83.5459 304.081C85.1965 303.026 86.667 301.586 87.3773 299.765C88.0875 297.944 87.9225 295.703 86.637 294.233C85.8917 293.378 84.7463 292.877 83.616 292.862C82.6706 292.852 81.6003 293.613 80.7399 293.118C79.8096 292.582 79.2044 291.267 78.2091 290.647C77.1237 289.966 75.8682 289.546 74.5828 289.461Z" fill="white"/>
<path d="M215.187 321.077C212.421 320.892 209.655 322.168 207.799 324.223C205.559 322.763 202.488 322.693 200.182 324.048C197.876 325.404 196.445 328.12 196.63 330.791C195.34 330.996 194.165 331.751 193.359 332.781C191.859 334.702 191.764 337.658 193.284 339.564C194.805 341.469 197.861 341.995 199.837 340.564C201.567 342.47 204.003 343.72 206.564 344.01C209.125 344.3 211.776 343.62 213.887 342.145C215.367 343.955 217.833 344.901 220.144 344.546C222.455 344.19 224.525 342.555 225.401 340.384C225.736 339.554 225.901 338.633 225.721 337.753C225.541 336.878 224.975 336.053 224.15 335.697C225.801 334.642 227.271 333.202 227.981 331.381C228.692 329.56 228.527 327.32 227.241 325.849C226.496 324.994 225.351 324.494 224.22 324.479C223.275 324.469 222.204 325.229 221.344 324.734C220.414 324.198 219.809 322.883 218.813 322.263C217.723 321.578 216.467 321.162 215.187 321.077Z" fill="white"/>
<path d="M293.004 336.868V352.678C293.004 354.194 291.774 355.419 290.263 355.419H243.002C241.486 355.419 240.261 354.189 240.261 352.678V289.446C240.261 287.926 241.491 286.705 243.002 286.705H290.263C291.779 286.705 293.004 287.926 293.004 289.446V305.257C293.004 306.772 291.774 307.998 290.263 307.998H269.371V312.389H282.39C283.906 312.389 285.131 313.62 285.131 315.13V326.984C285.131 328.505 283.901 329.725 282.39 329.725H269.371V334.122H290.263C291.779 334.127 293.004 335.352 293.004 336.868Z" fill="#3D195B"/>
<path d="M208.225 287.426C218.718 290.096 226.046 299.535 226.046 310.374C226.046 321.212 218.718 330.651 208.225 333.327C206.324 333.807 204.353 334.052 202.372 334.052C201.902 334.052 201.502 334.042 201.117 334.027H190.598V352.678C190.598 354.194 189.368 355.419 187.857 355.419H164.224C162.709 355.419 161.483 354.189 161.483 352.678V289.441C161.483 287.926 162.714 286.7 164.224 286.7H202.372C204.353 286.7 206.324 286.945 208.225 287.426Z" fill="#3D195B"/>
<path d="M151.035 351.718C151.345 352.558 151.23 353.499 150.724 354.239C150.209 354.979 149.369 355.419 148.469 355.419H85.4466C84.5463 355.419 83.706 354.979 83.1908 354.239C82.6806 353.499 82.5606 352.553 82.8807 351.718L106.514 288.486C106.914 287.411 107.939 286.705 109.08 286.705H124.83C125.976 286.705 127.001 287.411 127.401 288.486L151.035 351.718Z" fill="#3D195B"/>
<path d="M72.437 289.447V352.679C72.437 354.194 71.2066 355.42 69.6961 355.42H53.9406C52.425 355.42 51.1996 354.189 51.1996 352.679V321.513L40.3208 334.948C39.8006 335.588 39.0153 335.968 38.1901 335.968C37.3648 335.968 36.5845 335.588 36.0643 334.948L25.1805 321.513V352.679C25.1805 354.194 23.9501 355.42 22.4395 355.42H6.67903C5.1635 355.42 3.93807 354.189 3.93807 352.679V289.447C3.93807 287.926 5.16851 286.706 6.67903 286.706H69.7011C71.2066 286.706 72.437 287.926 72.437 289.447Z" fill="#3D195B"/>
<path d="M85.4466 352.673L109.08 289.441H124.83L148.469 352.673H85.4466Z" fill="#A438A8"/>
<path d="M69.6961 352.673H53.9406V313.765L38.185 333.217L22.4295 313.765V352.673H6.67402V289.441H69.6961V352.673Z" fill="#A438A8"/>
<path d="M202.372 289.441C204.158 289.441 205.894 289.661 207.549 290.081C216.602 292.387 223.305 300.6 223.305 310.374C223.305 320.152 216.597 328.365 207.549 330.671C205.894 331.091 204.158 331.311 202.372 331.311C201.977 331.311 201.587 331.301 201.197 331.281H187.857V352.673H164.224V289.441H202.372Z" fill="#A438A8"/>
<path d="M282.385 315.13V326.984H266.63V336.863H290.263V352.673H243.002V289.441H290.263V305.252H266.63V315.13H282.385Z" fill="#A438A8"/>
<path d="M195.96 370.51C194.38 369.724 193.494 368.364 193.299 366.433C193.199 365.413 193.294 364.613 193.594 364.042C193.895 363.467 194.385 363.147 195.075 363.077C195.575 363.027 195.995 363.117 196.34 363.342C196.68 363.572 196.871 363.887 196.916 364.297C196.956 364.668 196.956 364.998 196.931 365.283C196.941 365.358 196.936 365.488 196.931 365.678C196.921 365.863 196.926 366.063 196.946 366.268C197.031 367.103 197.516 367.684 198.401 368.004C199.286 368.329 200.492 368.414 202.012 368.259C203.588 368.099 204.793 367.694 205.629 367.038C206.464 366.383 206.829 365.543 206.724 364.523C206.659 363.892 206.404 363.367 205.949 362.957C205.494 362.542 204.948 362.217 204.303 361.972C203.658 361.727 202.758 361.436 201.602 361.106C200.117 360.691 198.901 360.281 197.951 359.871C197.001 359.461 196.16 358.856 195.435 358.055C194.71 357.255 194.28 356.22 194.155 354.939C194.02 353.604 194.26 352.378 194.87 351.268C195.48 350.158 196.43 349.247 197.716 348.537C199.001 347.827 200.557 347.382 202.372 347.196C203.728 347.061 204.993 347.136 206.164 347.422C207.334 347.707 208.3 348.222 209.06 348.972C209.82 349.722 210.26 350.688 210.375 351.878C210.49 353.048 210.405 353.944 210.115 354.574C209.82 355.204 209.33 355.554 208.645 355.624C208.16 355.674 207.744 355.564 207.389 355.299C207.034 355.034 206.839 354.699 206.794 354.289C206.759 353.934 206.754 353.609 206.779 353.304C206.779 352.743 206.769 352.388 206.754 352.238C206.679 351.458 206.239 350.903 205.434 350.573C204.633 350.243 203.663 350.132 202.533 350.243C200.937 350.403 199.747 350.818 198.961 351.488C198.176 352.158 197.836 353.024 197.941 354.079C198.011 354.784 198.291 355.364 198.776 355.819C199.261 356.275 199.847 356.64 200.532 356.91C201.212 357.18 202.162 357.485 203.378 357.835C204.843 358.265 206.029 358.675 206.929 359.051C207.829 359.431 208.62 359.986 209.305 360.721C209.99 361.461 210.39 362.412 210.505 363.582C210.725 365.773 210.065 367.539 208.52 368.884C206.979 370.23 204.813 371.04 202.032 371.32C199.561 371.57 197.541 371.3 195.96 370.51Z" fill="white"/>
<path d="M291.534 350.983C291.489 350.573 291.369 350.313 291.159 350.203C290.948 350.082 290.608 350.037 290.143 350.092C289.683 350.137 289.273 350.213 288.933 350.323C288.803 349.927 288.658 349.652 288.503 349.507C288.338 349.362 288.062 349.307 287.652 349.352C286.377 349.482 285.196 350.002 284.136 350.928C283.081 351.853 282.275 353.008 281.71 354.399C281.18 355.744 280.97 357.13 281.095 358.55C280.765 358.991 280.48 359.346 280.225 359.606C279.765 360.111 279.344 360.386 278.979 360.421C278.439 360.476 278.129 360.136 278.054 359.396C277.999 358.881 278.074 357.785 278.264 356.135C278.484 354.209 278.549 352.873 278.484 352.148C278.364 350.948 277.704 350.408 276.488 350.528C275.883 350.583 275.223 350.868 274.538 351.363C273.842 351.858 273.172 352.653 272.512 353.734C271.852 354.814 271.292 356.18 270.836 357.83C270.836 357.015 270.856 356.31 270.911 355.749C270.966 355.174 271.042 354.514 271.167 353.754C271.332 352.683 271.407 352.003 271.377 351.703C271.357 351.448 271.267 351.273 271.102 351.198C270.946 351.123 270.681 351.098 270.306 351.143C269.621 351.208 269.106 351.388 268.741 351.673C268.386 351.968 268.156 352.388 268.045 352.938C267.605 355.019 267.485 357.18 267.66 359.406C267.185 360.076 266.79 360.606 266.46 360.971C266.01 361.491 265.61 361.767 265.269 361.797C264.929 361.832 264.654 361.707 264.474 361.421C264.299 361.146 264.179 360.726 264.124 360.166C264.059 359.441 264.134 358.04 264.379 355.96C264.564 354.229 264.634 353.139 264.589 352.678C264.524 352.038 264.014 351.773 263.069 351.873C262.464 351.928 262.023 352.083 261.768 352.333C261.513 352.588 261.328 353.013 261.228 353.624C261.008 354.789 260.853 356.035 260.768 357.37C260.703 358.485 260.693 359.421 260.748 360.191C260.263 360.851 259.858 361.356 259.512 361.702C259.017 362.207 258.477 362.482 257.902 362.537C257.362 362.592 256.887 362.482 256.481 362.217C256.061 361.952 255.796 361.566 255.676 361.071C256.867 360.276 257.682 359.431 258.122 358.525C258.552 357.61 258.717 356.655 258.617 355.629C258.517 354.704 258.167 353.954 257.527 353.384C256.897 352.808 256.126 352.568 255.191 352.658C254.191 352.768 253.165 353.399 252.13 354.564C251.085 355.719 250.224 357.505 249.574 359.916C249.464 358.891 249.399 357.9 249.354 356.93C251.56 353.989 253.1 351.453 253.991 349.337C254.881 347.211 255.236 345.216 255.046 343.335C254.926 342.17 254.571 341.254 253.966 340.569C253.36 339.884 252.63 339.589 251.785 339.679C250.189 339.834 248.919 341.024 247.993 343.25C247.058 345.476 246.463 348.162 246.188 351.313C245.978 353.749 245.933 356.095 246.058 358.35C245.288 358.59 244.592 358.771 243.987 358.866C243.692 357.455 243.062 356.31 242.101 355.419C241.141 354.529 239.956 354.164 238.545 354.294C237.4 354.414 236.374 354.834 235.494 355.549C234.614 356.265 233.954 357.2 233.533 358.36C233.103 359.516 232.958 360.806 233.103 362.217C233.138 362.592 233.203 362.957 233.303 363.307C232.963 363.767 232.663 364.132 232.413 364.407C231.948 364.913 231.533 365.178 231.158 365.223C230.617 365.268 230.307 364.928 230.242 364.187C230.187 363.672 230.252 362.577 230.442 360.926C230.662 359.001 230.737 357.665 230.662 356.95C230.542 355.739 229.882 355.199 228.682 355.319C227.691 355.419 226.686 356.045 225.661 357.19C224.625 358.345 223.765 360.111 223.07 362.487C223.09 362.147 223.135 361.626 223.225 360.946C223.425 359.361 223.49 358.27 223.425 357.675C223.37 357.06 223.185 356.62 222.885 356.34C222.59 356.075 222.114 355.975 221.464 356.04C220.814 356.095 220.154 356.415 219.468 356.975C218.783 357.55 218.148 358.365 217.553 359.431C216.948 360.511 216.472 361.787 216.122 363.287C216.112 362.462 216.142 361.777 216.197 361.216C216.252 360.656 216.327 359.996 216.442 359.236C216.617 358.165 216.698 357.485 216.662 357.195C216.642 356.93 216.542 356.765 216.387 356.69C216.232 356.6 215.967 356.59 215.592 356.625C214.907 356.69 214.382 356.865 214.027 357.165C213.676 357.45 213.441 357.87 213.321 358.43C212.861 360.666 212.746 362.992 212.991 365.403C213.156 367.033 213.411 368.214 213.771 368.929C214.137 369.634 214.662 369.954 215.367 369.889C215.952 369.834 216.357 369.634 216.592 369.304C216.833 368.974 217.013 368.359 217.133 367.464C217.263 366.438 217.488 365.383 217.783 364.302C218.078 363.222 218.398 362.332 218.763 361.617C219.128 360.911 219.448 360.536 219.724 360.516C219.924 360.496 220.044 360.636 220.074 360.936C220.109 361.301 220.109 362.092 220.084 363.292C220.029 364.648 220.039 365.673 220.104 366.378C220.194 367.213 220.414 367.909 220.774 368.459C221.149 369.019 221.634 369.264 222.249 369.199C222.835 369.144 223.25 368.954 223.495 368.624C223.735 368.304 223.915 367.689 224.025 366.773C224.19 365.618 224.445 364.502 224.785 363.437C225.125 362.367 225.491 361.511 225.876 360.836C226.261 360.176 226.571 359.821 226.811 359.801C227.021 359.781 227.131 359.921 227.166 360.221C227.211 360.661 227.166 361.486 227.046 362.677C226.926 364.042 226.881 364.978 226.936 365.498C227.046 366.543 227.366 367.303 227.906 367.814C228.437 368.309 229.182 368.509 230.132 368.419C231.298 368.299 232.313 367.879 233.163 367.153C233.648 366.748 234.099 366.293 234.529 365.778C234.939 366.283 235.434 366.693 236.014 367.013C236.865 367.474 237.83 367.654 238.955 367.534C240.266 367.404 241.401 366.818 242.346 365.783C243.282 364.738 243.857 363.412 244.052 361.827C244.857 361.717 245.608 361.541 246.313 361.296C246.443 362.517 246.588 363.477 246.733 364.172C246.918 365.033 247.163 365.658 247.473 366.043C247.783 366.438 248.234 366.603 248.809 366.548C249.384 366.483 249.789 366.293 250.034 365.953C250.264 365.623 250.439 365.018 250.564 364.112C250.739 362.877 251.025 361.667 251.435 360.476C251.845 359.276 252.305 358.295 252.845 357.5C253.375 356.72 253.881 356.31 254.386 356.255C254.586 356.235 254.771 356.3 254.926 356.455C255.081 356.61 255.181 356.85 255.211 357.18C255.266 357.755 255.136 358.26 254.826 358.7C254.516 359.131 253.966 359.571 253.185 360.001C252.48 360.386 252.16 360.946 252.225 361.677C252.37 363.032 252.91 364.067 253.866 364.793C254.811 365.533 256.001 365.818 257.437 365.673C258.602 365.553 259.583 365.143 260.378 364.452C260.763 364.112 261.148 363.727 261.513 363.287C261.643 363.517 261.788 363.737 261.943 363.937C262.574 364.733 263.499 365.073 264.709 364.953C265.875 364.833 267.045 364.102 268.226 362.762C268.316 363.027 268.401 363.257 268.501 363.447C268.866 364.162 269.406 364.482 270.111 364.417C270.686 364.362 271.092 364.162 271.322 363.832C271.562 363.492 271.742 362.887 271.862 361.992C272.027 360.826 272.282 359.711 272.632 358.655C272.982 357.585 273.347 356.715 273.722 356.055C274.098 355.394 274.408 355.039 274.648 355.019C274.848 354.999 274.968 355.139 275.003 355.439C275.048 355.879 275.003 356.695 274.883 357.895C274.753 359.251 274.718 360.196 274.773 360.716C274.873 361.752 275.193 362.522 275.733 363.017C276.273 363.522 277.014 363.722 277.959 363.622C279.124 363.512 280.14 363.092 281 362.367C281.355 362.057 281.695 361.727 282.035 361.366C282.165 361.566 282.32 361.742 282.486 361.907C283.256 362.677 284.216 362.997 285.362 362.887C285.867 362.832 286.352 362.657 286.837 362.337C287.322 362.017 287.697 361.586 287.962 361.046L287.907 362.147C285.276 364.648 283.511 366.698 282.621 368.314C281.73 369.934 281.355 371.4 281.485 372.72C281.585 373.666 281.96 374.396 282.611 374.926C283.261 375.456 284.066 375.666 285.011 375.576C287.017 375.366 288.473 373.826 289.398 370.925C290.313 368.029 290.883 364.162 291.104 359.301C291.124 358.771 291.204 357.68 291.314 356.04C291.469 353.604 291.544 352.108 291.569 351.523C291.559 351.393 291.559 351.213 291.534 350.983ZM240.351 363.687C239.966 364.217 239.48 364.503 238.885 364.558C238.345 364.613 237.85 364.392 237.4 363.897C236.95 363.402 236.675 362.642 236.564 361.617C236.434 360.316 236.584 359.291 237.005 358.52C237.425 357.76 238.005 357.34 238.745 357.265L238.89 357.255C238.855 357.55 238.87 357.86 238.89 358.16C238.965 358.866 239.185 359.516 239.55 360.111C239.926 360.716 240.411 361.181 241.026 361.511C240.971 362.427 240.751 363.157 240.351 363.687ZM249.729 348.032C249.939 346.366 250.204 345.036 250.524 344.045C250.834 343.045 251.165 342.525 251.495 342.495C251.735 342.475 251.935 342.615 252.1 342.915C252.255 343.225 252.365 343.665 252.43 344.26C252.56 345.561 252.33 347.046 251.735 348.722C251.14 350.388 250.334 351.963 249.324 353.429C249.374 351.488 249.509 349.682 249.729 348.032ZM286.437 371.01C285.977 372.175 285.502 372.795 285.036 372.84C284.761 372.86 284.551 372.785 284.406 372.585C284.261 372.4 284.176 372.145 284.141 371.825C284.076 371.085 284.296 370.195 284.836 369.149C285.367 368.104 286.282 366.893 287.592 365.523C287.292 368.004 286.907 369.834 286.437 371.01ZM287.832 356.755C287.767 357.735 287.557 358.505 287.227 359.071C286.887 359.621 286.502 359.931 286.082 359.976C285.662 360.011 285.332 359.911 285.081 359.656C284.816 359.391 284.661 358.986 284.596 358.4C284.496 357.365 284.596 356.365 284.891 355.394C285.176 354.434 285.632 353.634 286.227 353.003C286.812 352.363 287.492 352.003 288.253 351.913L287.832 356.755Z" fill="white"/>
<path d="M265.835 347.292C265.77 346.686 265.505 346.236 265.054 345.936C264.594 345.651 264.019 345.541 263.324 345.606C262.564 345.681 261.958 345.956 261.483 346.451C261.023 346.936 260.823 347.497 260.888 348.147C260.953 348.797 261.198 349.292 261.628 349.612C262.048 349.932 262.654 350.052 263.434 349.977C264.229 349.902 264.844 349.612 265.285 349.127C265.725 348.647 265.9 348.042 265.835 347.292Z" fill="white"/>
<path d="M160.578 279.158C157.812 278.973 155.046 280.248 153.19 282.304C150.95 280.843 147.878 280.773 145.573 282.129C143.267 283.484 141.836 286.2 142.021 288.871C140.731 289.076 139.556 289.831 138.75 290.862C137.25 292.782 137.155 295.738 138.675 297.644C140.196 299.55 143.252 300.075 145.227 298.644C146.958 300.55 149.394 301.801 151.955 302.091C154.516 302.376 157.167 301.701 159.277 300.225C160.758 302.036 163.224 302.981 165.535 302.626C167.845 302.271 169.916 300.635 170.791 298.464C171.127 297.634 171.292 296.714 171.112 295.833C170.931 294.953 170.366 294.133 169.541 293.778C171.192 292.722 172.662 291.282 173.372 289.461C174.083 287.641 173.918 285.4 172.632 283.929C171.887 283.074 170.741 282.574 169.611 282.559C168.666 282.549 167.595 283.309 166.735 282.814C165.805 282.279 165.199 280.963 164.204 280.343C163.119 279.658 161.863 279.243 160.578 279.158Z" fill="white"/>
<path d="M290.788 272.915C288.022 272.73 285.256 274.006 283.401 276.062C281.16 274.601 278.089 274.531 275.783 275.887C273.477 277.242 272.047 279.958 272.232 282.629C270.941 282.834 269.766 283.589 268.961 284.62C267.46 286.54 267.365 289.496 268.886 291.402C270.406 293.308 273.462 293.833 275.438 292.402C277.169 294.308 279.604 295.558 282.165 295.849C284.726 296.134 287.377 295.458 289.488 293.983C290.968 295.793 293.434 296.739 295.745 296.384C298.056 296.029 300.127 294.393 301.002 292.222C301.337 291.392 301.502 290.472 301.322 289.591C301.142 288.716 300.577 287.891 299.752 287.536C301.402 286.48 302.873 285.04 303.583 283.219C304.293 281.398 304.128 279.158 302.843 277.687C302.097 276.832 300.952 276.332 299.822 276.317C298.876 276.307 297.806 277.067 296.946 276.572C296.015 276.037 295.41 274.721 294.415 274.101C293.324 273.416 292.069 273 290.788 272.915Z" fill="white"/>
<path d="M241.411 247.492C241.411 247.502 241.411 247.507 241.401 247.517V247.527L241.376 247.682C240.296 253.209 236.87 258.19 232.208 261.016L231.093 261.697L230.352 262.762C228.567 265.343 225.671 266.648 221.734 266.648C221.309 266.648 220.934 266.638 220.629 266.633H220.374L220.174 266.623L219.974 266.633C217.883 266.718 215.762 266.913 213.481 267.223C211.031 267.564 208.565 267.999 206.154 268.514L202.197 269.349L201.432 273.331C200.507 278.157 199.507 283.059 198.451 287.886C197.616 291.792 194.095 294.613 190.093 294.613H190.078L189.948 294.603H189.728C178.729 294.123 167.365 290.352 156.872 283.689C148.479 278.347 140.366 271.4 132.048 262.457C128.036 258.14 124.17 253.654 120.429 249.312L120.229 249.077C115.372 243.43 110.345 237.583 105.098 232.266L105.013 232.181L104.928 232.096C95.165 222.978 88.5977 218.481 88.3176 218.291L88.2326 218.231L88.1375 218.181C81.2151 213.84 74.1076 211.129 66.9751 210.128L66.9301 210.118L66.705 210.073C63.1688 209.508 59.4625 209.143 55.8713 208.783L55.7912 208.773C49.279 208.118 42.5616 207.448 35.7742 205.617C35.6692 205.592 35.5541 205.567 35.4541 205.537C29.2569 203.786 23.795 201.145 19.2084 197.674L18.7633 197.334C16.4625 195.538 14.3367 193.528 12.391 191.302C10.4404 189.081 8.67975 186.655 7.1092 184.034C0.827003 173.611 -1.43879 160.826 0.902028 148.972C2.70766 139.979 3.49794 130.896 4.33823 121.272L4.35324 121.097C5.3986 108.913 6.48898 96.3287 9.82515 83.7943C11.2957 78.1623 13.4664 72.5054 16.2824 66.9634C19.0384 61.5065 22.4346 56.5548 25.7057 52.0232L25.8608 51.8131V51.8031C32.7532 42.4799 40.806 34.0869 49.8391 26.8244C54.2557 23.2231 59.0324 19.8419 64.0441 16.7659L64.0691 16.7509L64.0841 16.7409C68.8958 13.7248 74.0826 11.0038 79.4945 8.63802L79.5545 8.61301L79.6046 8.588C90.8235 3.4262 102.873 0.480168 114.482 0.0800279C115.677 0.0300104 116.888 0 118.088 0C129.077 0 139.801 1.95068 149.924 5.79703L149.994 5.82204L150.054 5.83704C160.373 9.50832 170.066 16.5808 179.685 27.4846L179.805 27.6247L179.815 27.6347C186.632 35.5124 194.275 45.1008 199.451 56.4998L199.467 56.5348L199.482 56.5798C204.048 66.2782 207.344 77.182 209.54 89.8914L209.555 89.9715C212.491 107.333 213.076 124.318 213.261 137.173L213.341 143.18L219.348 143.19C221.484 143.2 223.49 143.65 225.311 144.526C230.112 146.836 235.419 152.473 233.483 166.263C232.288 174.741 228.997 182.764 227.626 185.83C225.411 190.807 222.64 195.523 219.373 199.86C216.042 204.281 219.849 210.499 225.301 209.543C225.746 209.463 226.196 209.423 226.651 209.423C227.521 209.423 228.392 209.578 229.242 209.868C230.087 210.159 230.862 210.584 231.543 211.114C234.104 213.13 235.179 216.526 234.254 219.637C234.204 219.767 234.159 219.907 234.124 220.047C233.558 221.833 233.478 223.653 233.864 225.614L233.889 225.764L233.899 225.779C233.924 225.894 233.944 225.999 233.979 226.109C234.189 226.969 234.589 227.77 235.144 228.46C235.364 228.74 235.634 229.05 235.869 229.325L236.024 229.515C236.424 229.975 236.825 230.456 237.235 230.986L237.26 231.021L237.295 231.056C240.896 235.567 242.432 241.705 241.411 247.492Z" fill="white"/>
<path d="M202.267 88.8761C200.402 78.1023 197.491 67.4036 192.794 57.4301C188.218 47.3265 181.395 38.5285 174.248 30.2706C167.04 22.1027 158.317 14.4951 147.728 10.7738C137.375 6.82738 126.226 5.06676 115.187 5.51192C104.138 5.88705 93.1643 8.76305 83.2108 13.3747C78.1841 15.5704 73.2924 18.1163 68.6307 21.0373C63.9491 23.9134 59.4525 27.0795 55.201 30.5457C46.653 37.4231 39.0004 45.4059 32.5081 54.224C29.302 58.6705 26.2059 63.1821 23.725 68.1088C21.2392 73.0005 19.2284 78.1423 17.843 83.4292C12.176 104.667 13.3214 126.769 9.02988 148.122C7.04919 158.125 8.98486 168.854 14.2667 177.607C16.8876 181.989 20.2988 185.92 24.3752 189.031C28.4717 192.132 33.2483 194.258 38.1801 195.628C48.1135 198.319 58.4422 198.329 68.3856 199.935C77.1187 201.145 85.3216 204.486 92.7292 209.128C92.5191 208.298 92.414 207.453 92.414 206.602V206.592C85.1115 202.356 76.9886 199.43 68.6207 198.424C58.4772 197.004 48.2336 197.194 38.4152 194.728C33.5435 193.483 28.8268 191.497 24.7504 188.521C20.664 185.565 17.2878 181.664 14.6669 177.357C9.375 168.744 7.3793 158.12 9.27997 148.167C13.7315 126.824 12.7162 104.607 18.8583 83.7093C20.3238 78.4974 22.4246 73.4957 24.9254 68.729C27.4363 63.9724 30.5924 59.5158 33.8135 55.2043C40.3658 46.6113 48.0385 38.8736 56.5615 32.2563C65.0495 25.5989 74.4127 20.082 84.2612 15.7405C94.0746 11.2239 104.558 8.52297 115.297 8.15784C125.991 7.7477 136.77 9.48331 146.758 13.3196C156.887 16.8409 165.185 23.9634 172.347 31.9712C179.439 40.094 186.172 48.662 190.638 58.4404C195.26 68.1588 198.266 78.6175 200.232 89.2412C203.743 108.598 204.353 128.415 204.563 148.157C205.018 147.807 205.479 147.467 205.949 147.146C205.919 127.705 205.534 108.183 202.267 88.8761Z" fill="#A438A8"/>
<path d="M202.478 212.864C202.252 215.025 202.007 217.181 201.747 219.342C199.386 240.989 195.845 262.517 191.229 283.819C191.159 284.159 190.838 284.384 190.503 284.379C180.15 283.924 170.171 280.178 161.518 274.686C152.835 269.154 145.177 262.207 138.23 254.729C128.957 244.761 120.574 233.942 111.106 224.363C112.751 225.094 114.437 225.769 116.162 226.359C117.383 227.65 118.593 228.95 119.789 230.266C126.641 237.838 132.933 245.851 139.816 253.249C146.683 260.646 154.091 267.604 162.504 273.146C170.711 278.542 180.135 282.269 189.968 282.914C194.71 261.902 198.501 240.659 200.957 219.257C201.167 217.341 201.377 215.43 201.567 213.515C201.882 213.3 202.187 213.08 202.478 212.864Z" fill="#A438A8"/>
<path d="M190.638 58.4405C186.157 48.642 179.449 40.084 172.327 31.9712C165.169 23.9634 156.882 16.8409 146.748 13.3197C136.76 9.48333 125.971 7.73272 115.292 8.15286C104.538 8.52799 94.0596 11.2289 84.2412 15.7505C74.4177 20.067 65.0394 25.609 56.5415 32.2513C48.0185 38.8586 40.3558 46.5963 33.8135 55.1893C30.5624 59.5308 27.4163 63.9824 24.9154 68.7441C22.4145 73.5007 20.3288 78.5075 18.8583 83.7093C12.6961 104.627 13.7265 126.844 9.26994 148.167C7.38928 158.13 9.37497 168.744 14.6468 177.362C17.2777 181.679 20.6339 185.58 24.7403 188.526C28.8168 191.507 33.5434 193.483 38.4051 194.723C44.9424 196.364 51.6548 196.839 58.4221 197.389C61.2631 189.486 64.2091 181.579 67.3302 173.771C70.6864 165.903 74.2777 158.09 78.2141 150.458C86.1168 135.152 95.7752 120.677 107.409 107.768C113.336 101.395 119.874 95.5484 126.921 90.4066C134.009 85.3449 141.441 80.7233 149.754 77.6022C158.042 74.5261 166.905 72.8805 175.743 73.4607C183.751 74.0809 191.589 76.5818 198.366 80.6882C196.53 73.0256 194.03 65.5279 190.638 58.4405ZM53.2153 185.655C45.1975 186.52 36.6545 185.54 29.6421 181.228C26.1809 179.048 23.2698 176.027 21.2591 172.48C19.2434 168.944 18.163 164.813 18.5582 160.741C18.5582 160.696 18.6032 160.661 18.6532 160.661C18.6982 160.671 18.7232 160.711 18.7332 160.756C18.9583 164.828 20.3088 168.589 22.4095 171.815C24.5203 175.031 27.2562 177.857 30.5474 179.773C33.7435 181.909 37.4698 183.179 41.2861 184.079C45.1225 184.97 49.1189 185.31 53.2003 185.49C53.2503 185.48 53.2953 185.515 53.2953 185.56C53.3003 185.6 53.2603 185.645 53.2153 185.655ZM61.6082 169.554C52.1099 169.649 42.6866 164.943 37.0647 157.285C37.0396 157.25 37.0497 157.2 37.0797 157.165C37.1047 157.15 37.1497 157.15 37.1847 157.175L37.1997 157.185C39.0904 158.701 40.886 160.146 42.7867 161.411C44.6773 162.677 46.568 163.912 48.6337 164.818C50.6044 165.933 52.7301 166.693 54.8759 167.459C57.0266 168.224 59.2574 168.794 61.6032 169.394H61.6282C61.6733 169.409 61.6983 169.454 61.6883 169.499C61.6883 169.539 61.6533 169.554 61.6082 169.554ZM68.6757 147.287C68.6507 147.312 68.6057 147.322 68.5707 147.302C61.038 143.8 53.7905 139.684 46.9231 135.002C46.8781 134.977 46.8731 134.922 46.8981 134.882C46.9231 134.857 46.9581 134.837 46.9931 134.857H47.0181C49.0739 135.502 50.9645 136.383 52.8502 137.263C54.7258 138.143 56.4914 139.199 58.3421 140.124C60.0677 141.249 61.8883 142.205 63.6039 143.375C65.3195 144.536 67.0401 145.711 68.6507 147.146L68.6657 147.162C68.7007 147.192 68.7007 147.252 68.6757 147.287ZM80.2498 123.223C80.2248 123.258 80.1797 123.268 80.1447 123.248C70.7564 118.612 61.8583 112.965 53.6755 106.437C53.6404 106.402 53.6304 106.352 53.6605 106.317C53.6855 106.292 53.7305 106.282 53.7655 106.292L53.7805 106.302C56.2114 107.438 58.4621 108.768 60.7179 110.069L67.3703 114.13L73.8625 118.426C76.0083 119.907 78.169 121.387 80.2248 123.098L80.2398 123.113C80.2748 123.138 80.2848 123.188 80.2498 123.223ZM97.1157 107.658C97.0907 107.693 97.0306 107.693 96.9956 107.683C87.3573 100.86 77.7789 93.9629 68.2606 86.9904C68.2155 86.9654 68.2105 86.9104 68.2356 86.8754C68.2606 86.8404 68.3206 86.8304 68.3556 86.8504C71.1016 88.0858 73.6625 89.5763 76.1883 91.1119C78.7242 92.6524 81.1151 94.378 83.5709 96.0186C85.8967 97.8392 88.3026 99.5398 90.5584 101.466C92.8142 103.376 95.0449 105.327 97.0857 107.538C97.1307 107.573 97.1407 107.623 97.1157 107.658ZM107.914 84.3645C107.889 84.3995 107.829 84.3895 107.794 84.3795C98.5812 77.4421 89.433 70.4246 80.3298 63.3422C80.2948 63.3072 80.2848 63.2571 80.3148 63.2221C80.3398 63.1871 80.3998 63.1871 80.4348 63.2071C83.0908 64.4776 85.5516 66.0131 87.9825 67.5837C90.4133 69.1542 92.6891 70.9148 95.0499 72.5754C97.2657 74.4211 99.5665 76.1567 101.707 78.1023C103.853 80.038 105.969 82.0137 107.894 84.2445C107.929 84.2645 107.939 84.3195 107.914 84.3645ZM127.251 75.5865C127.206 75.5865 127.171 75.5614 127.166 75.5364C124.205 68.1088 118.318 61.9167 111.051 58.5855C111.006 58.5605 110.991 58.5155 111.016 58.4705C111.026 58.4355 111.061 58.4204 111.101 58.4204L111.116 58.4305C113.206 58.6905 115.162 59.4858 116.988 60.5062C118.828 61.5265 120.414 62.922 121.944 64.3575C123.295 65.9631 124.62 67.6187 125.536 69.4993C126.461 71.38 127.146 73.3757 127.311 75.4764L127.321 75.4914C127.331 75.5414 127.296 75.5765 127.251 75.5865ZM156.276 68.0388C156.231 68.0488 156.191 68.0238 156.161 67.9788C151.9 55.4294 140.481 45.641 127.426 43.3402C127.381 43.3302 127.346 43.2902 127.356 43.2451C127.366 43.2001 127.416 43.1751 127.451 43.1751C130.842 43.1301 134.224 43.9154 137.415 45.1908C140.606 46.4613 143.517 48.3819 146.198 50.5327C148.724 52.8585 151.07 55.4394 152.815 58.4004C154.556 61.3565 155.856 64.5726 156.326 67.9288C156.346 67.9688 156.321 68.0188 156.276 68.0388ZM179.835 68.2839C179.79 68.2989 179.74 68.2739 179.72 68.2389C175.108 56.9449 170.386 45.4109 162.514 35.9726C158.617 31.276 153.896 27.2245 148.524 24.3135C143.172 21.4025 137.07 19.6919 130.942 19.997C130.897 19.997 130.857 19.962 130.857 19.917C130.857 19.867 130.892 19.8319 130.937 19.8219C133.999 19.4318 137.15 19.5368 140.246 20.077C143.322 20.6973 146.323 21.7676 149.154 23.1381C154.826 25.9341 159.718 30.1206 163.829 34.8872C167.75 39.7939 170.991 45.1808 173.527 50.8278C174.783 53.6588 175.943 56.5198 177.014 59.4058L179.875 68.1839C179.895 68.2239 179.875 68.2639 179.835 68.2839Z" fill="#A438A8"/>
<path d="M85.0514 203.811C97.3958 181.864 114.127 162.247 134.569 147.507C144.632 139.984 155.656 133.512 167.73 129.655C173.767 127.765 180.03 126.569 186.392 126.294C192.744 126.154 199.131 126.879 205.233 128.895C205.669 129.04 205.904 129.505 205.759 129.94C205.624 130.356 205.193 130.586 204.773 130.486L204.683 130.466C198.721 128.97 192.504 128.455 186.442 128.905C180.42 129.39 174.383 130.671 168.646 132.661C157.152 136.678 146.398 142.8 136.584 150.268C131.573 153.869 126.726 157.725 122.149 161.837C117.538 165.938 113.306 170.445 109.035 174.931C104.813 179.468 100.827 184.239 97.0857 189.206C93.2043 194.083 89.7031 199.25 86.2069 204.462L86.1718 204.517C85.9668 204.822 85.5516 204.907 85.2465 204.702C84.9714 204.497 84.8814 204.111 85.0514 203.811Z" fill="#A438A8"/>
<path d="M220.904 180.228C218.248 186.215 214.697 191.732 210.365 196.624C209.835 197.224 209.23 197.764 208.63 198.314L208.009 198.89C206.399 200.395 204.888 201.766 203.458 203.036C203.108 203.331 202.778 203.626 202.438 203.916C201.942 204.351 201.452 204.772 200.972 205.182L200.042 205.982C199.562 206.407 199.101 206.812 198.631 207.177C198.596 207.107 198.561 207.047 198.526 206.977C197.916 205.837 197.331 204.687 196.776 203.516C194.395 198.524 192.889 194.018 192.164 189.721C191.344 184.86 191.574 180.158 192.819 175.766C194.765 168.944 198.841 162.512 204.583 157.1C205.018 156.69 205.464 156.28 205.919 155.88C207.574 154.424 209.36 153.054 211.251 151.773C212.521 150.918 216.262 148.627 219.714 148.627C220.629 148.627 221.519 148.782 222.344 149.187C230.402 153.034 224.93 171.18 220.904 180.228Z" fill="#A438A8"/>
<path d="M171.492 215.71C167.855 220.432 160.928 221.898 155.296 222.648C143.687 224.183 133.053 223.788 123.685 221.452C118.838 220.252 114.257 218.491 110.01 216.206C106.374 214.255 101.397 211.579 99.6816 208.258C99.1914 207.318 99.1264 206.417 99.4565 205.372C100.607 201.781 106.089 197.249 114.502 192.942C116.883 191.722 119.323 190.712 121.814 189.891C124.3 189.081 126.841 188.481 129.407 188.081C131.893 187.696 134.399 187.506 136.91 187.506C147.463 187.506 157.942 190.887 166.49 197.204C169.656 199.53 171.632 201.666 172.732 203.921C174.528 207.593 174.013 212.439 171.492 215.71Z" fill="#A438A8"/>
<path d="M181.02 230.586C181.055 232.851 180.965 234.902 181.685 236.668C182.325 238.438 183.721 239.774 185.917 240.384C184.836 240.794 183.561 240.629 182.471 240.054C181.35 239.499 180.53 238.413 180.085 237.278C179.224 234.937 179.785 232.436 181.02 230.586Z" fill="#A438A8"/>
<path d="M191.619 228.545C193.509 229.715 195.06 231.756 195.245 234.252C195.31 235.467 195.015 236.793 194.225 237.763C193.474 238.738 192.379 239.419 191.229 239.494C192.974 238.023 193.689 236.233 193.539 234.357C193.459 232.446 192.529 230.621 191.619 228.545Z" fill="#A438A8"/>
<path d="M186.447 261.972C187.407 261.561 188.373 261.156 189.488 260.906C191.159 260.531 193.049 260.446 194.76 260.796C194.8 260.801 194.845 260.811 194.885 260.816C195.235 260.846 195.56 260.701 195.61 260.496C195.66 260.291 195.41 260.101 195.06 260.071C192.999 259.906 190.944 259.706 188.863 259.631C186.917 259.561 184.781 259.511 182.941 259.951C181.455 260.306 180.26 261.006 179.565 261.847C179.034 262.487 178.744 263.232 178.864 263.947C178.874 263.997 178.894 264.057 178.974 264.082C179.024 264.097 179.084 264.092 179.139 264.087C181.085 263.882 182.886 263.337 184.556 262.742C185.212 262.507 185.827 262.237 186.447 261.972Z" fill="#A438A8"/>
<path d="M186.352 83.9294C187.582 85.1498 188.368 86.7454 188.958 88.3609C189.578 89.9715 190.133 91.6071 190.638 93.2576C191.659 96.5538 192.429 99.94 193.204 103.281C194.11 106.572 195.665 109.768 195.685 113.395C195.68 115.155 195.045 117.171 193.474 118.301C192.004 119.522 190.113 119.907 188.398 120.157C181.65 121.062 175.008 123.198 168.291 124.689L158.227 127.034C156.551 127.435 154.871 127.905 153.025 128.13C151.235 128.365 148.989 128.305 147.163 126.949C145.443 125.549 144.687 123.623 144.202 121.868L142.972 116.801L140.576 106.737C139.761 103.466 138.93 99.7799 139.561 96.1436C140.041 92.4273 142.762 89.1812 146.033 87.7257C149.284 86.1351 152.8 85.705 156.206 85.1898L166.435 83.6693C169.856 83.2041 173.202 82.4138 176.613 81.8386C178.319 81.5836 180.065 81.4385 181.785 81.6736C183.491 81.9287 185.141 82.6889 186.352 83.9294ZM186.352 83.9294C185.121 82.7089 183.471 81.9887 181.77 81.7636C180.06 81.5585 178.334 81.7386 176.644 82.0187C173.267 82.6489 169.901 83.5042 166.495 84.0344L156.326 85.9851C152.97 86.6453 149.534 87.2555 146.623 88.8661C143.682 90.3866 141.596 93.1676 141.311 96.4037C140.896 99.6549 141.806 102.846 142.707 106.207L145.288 116.226C146.243 119.492 146.648 123.298 148.719 124.909C150.744 126.504 154.426 125.419 157.682 124.714L167.815 122.543L177.959 120.502C181.335 119.812 184.786 119.147 188.253 118.882C189.918 118.722 191.584 118.436 192.849 117.471C194.19 116.596 194.795 114.995 194.89 113.36C195.02 110.013 193.714 106.702 192.854 103.371C192.129 99.985 191.429 96.6238 190.468 93.3077C189.993 91.6521 189.468 90.0115 188.878 88.3909C188.308 86.7704 187.562 85.1748 186.352 83.9294Z" fill="#A438A8"/>
<path d="M58.2971 197.794C61.1581 189.746 64.1342 181.729 67.3353 173.781C70.6764 165.893 74.2727 158.1 78.2041 150.448C86.1118 135.177 95.7852 120.682 107.409 107.758C113.346 101.395 119.864 95.5484 126.916 90.4166C134.009 85.3298 141.446 80.7232 149.774 77.6221C158.037 74.5311 166.925 72.8955 175.748 73.4857C184.556 74.1659 193.114 77.0869 200.312 81.9036L200.337 81.9186C200.657 82.1337 200.747 82.5689 200.527 82.894C200.317 83.2091 199.897 83.2991 199.577 83.1041C192.394 78.7175 184.081 76.2717 175.658 75.9566C167.225 75.5914 158.757 77.317 150.91 80.4481C135.249 86.9804 121.474 97.6541 109.92 110.073C98.4312 122.648 88.9678 136.948 80.865 151.903C72.7472 166.873 65.9448 182.519 59.5575 198.314C59.4175 198.664 59.0174 198.835 58.6672 198.689C58.3271 198.554 58.1571 198.169 58.2771 197.829L58.2971 197.794Z" fill="#A438A8"/>
<path d="M224.37 255.855C224.09 256.645 221.159 256.345 220.569 256.365C217.988 256.455 215.427 256.695 212.866 257.045C208.585 257.635 204.343 258.491 200.157 259.566C199.221 259.806 198.281 260.116 197.326 260.321C196.751 260.446 196.175 260.586 195.585 260.611C195.38 260.616 193.879 260.501 194.16 260.136C194.435 259.786 194.965 259.641 195.36 259.471C195.985 259.196 196.62 258.936 197.261 258.691C199.221 257.94 201.242 257.38 203.263 256.835C203.878 256.67 204.493 256.505 205.108 256.34C207.944 255.57 210.83 254.999 213.681 254.279C214.522 254.069 223.71 250.913 223.91 251.728C223.945 251.878 223.88 251.948 223.815 252.083C223.365 253.074 223.535 254.354 224.265 255.46C224.38 255.625 224.405 255.755 224.37 255.855Z" fill="#A438A8"/>
<path d="M226.016 254.799C225.976 254.899 225.921 254.994 225.861 255.084C225.446 255.704 224.695 256.005 223.97 256.165C223.94 256.17 223.91 256.175 223.885 256.165C223.865 256.155 223.85 256.14 223.835 256.125C222.81 255.004 222.405 253.239 223.155 251.868C223.2 251.788 223.25 251.703 223.325 251.653C223.435 251.578 223.58 251.588 223.71 251.603C224.52 251.698 225.321 252.098 225.781 252.773C226.181 253.359 226.291 254.154 226.016 254.799Z" fill="#A438A8"/>
<path d="M227.861 252.113C232.703 247.211 233.949 239.949 230.777 234.002C229.237 230.996 226.391 228.655 225.24 225.129C224.19 221.668 224.85 217.676 227.026 214.89C227.056 214.85 227.111 214.845 227.146 214.875C227.176 214.9 227.186 214.935 227.176 214.97C226.081 218.256 225.976 221.578 226.621 224.774C226.896 226.379 227.386 228.01 228.332 229.435C229.267 230.861 230.477 232.091 231.568 233.487C233.814 236.273 234.769 240.149 234.119 243.77C233.413 247.382 231.093 250.623 227.966 252.248C227.921 252.268 227.871 252.253 227.851 252.213C227.826 252.183 227.836 252.138 227.861 252.113Z" fill="#A438A8"/>
<path d="M226.471 250.022C226.896 248.217 227.181 246.581 227.246 244.911C227.391 243.255 227.331 241.584 227.081 239.854C226.946 238.994 226.661 238.138 226.156 237.423C225.661 236.708 224.9 236.208 224.21 235.552C223.58 234.847 222.95 234.267 222.59 233.272C222.259 232.336 222.214 231.161 222.825 230.356C222.855 230.316 222.91 230.306 222.95 230.336C222.975 230.351 222.985 230.381 222.985 230.406C223.03 232.251 224.325 233.232 225.361 234.712C225.796 235.447 226.211 236.308 226.626 237.133L227.966 239.554C228.882 241.204 229.227 243.175 229.062 245.076C228.817 246.971 228.001 248.827 226.616 250.112C226.581 250.147 226.521 250.142 226.491 250.107C226.471 250.082 226.461 250.047 226.471 250.022Z" fill="#A438A8"/>
<path d="M120.939 113.945C121.429 116.406 122.074 118.807 122.84 121.147C123.62 123.483 124.495 125.784 125.626 127.97C126.651 130.206 127.936 132.306 129.297 134.357C130.677 136.398 132.178 138.378 133.824 140.274C133.844 140.289 133.844 140.319 133.824 140.334C133.809 140.349 133.778 140.349 133.763 140.334C126.401 133.537 121.699 123.933 120.854 113.95C120.854 113.925 120.869 113.905 120.894 113.905C120.914 113.905 120.934 113.925 120.939 113.945Z" fill="#A438A8"/>
<path d="M104.233 133.137C105.554 134.447 106.829 135.777 108.05 137.153L111.671 141.294L115.162 145.551C116.317 146.981 117.423 148.457 118.498 149.972C118.513 149.987 118.513 150.017 118.498 150.032C118.483 150.047 118.453 150.042 118.438 150.032C113.321 144.741 108.55 139.109 104.163 133.192C104.148 133.172 104.153 133.147 104.173 133.132C104.188 133.112 104.218 133.122 104.233 133.137Z" fill="#A438A8"/>
<path d="M91.8088 150.628C93.0792 151.453 94.3197 152.288 95.5201 153.159L99.1214 155.754L102.688 158.4C103.883 159.281 105.053 160.206 106.229 161.166C106.249 161.176 106.259 161.206 106.244 161.226C106.234 161.246 106.204 161.251 106.184 161.241C100.937 158.375 96.0703 154.814 91.7438 150.688C91.7288 150.673 91.7238 150.643 91.7438 150.628C91.7588 150.618 91.7888 150.618 91.8088 150.628Z" fill="#A438A8"/>
<path d="M83.1608 168.279C84.3462 168.664 85.4966 169.119 86.602 169.649C87.7124 170.17 88.7627 170.79 89.8431 171.36C90.8635 172.03 91.9238 172.64 92.9142 173.361C93.9195 174.061 94.8699 174.846 95.7852 175.696C95.8052 175.706 95.8152 175.736 95.8002 175.756C95.7902 175.776 95.7602 175.776 95.7402 175.771C91.5087 173.341 87.3022 170.865 83.1158 168.349C83.0958 168.339 83.0908 168.309 83.1008 168.289C83.1108 168.279 83.1408 168.274 83.1608 168.279Z" fill="#A438A8"/>
<path d="M74.8179 188.246C75.6732 188.011 76.5585 187.921 77.4288 187.996C78.3041 188.051 79.1544 188.291 79.9947 188.531C80.8 188.881 81.6052 189.231 82.3155 189.751C83.0357 190.252 83.661 190.882 84.1761 191.602C84.1961 191.617 84.2011 191.642 84.1861 191.662C84.1711 191.677 84.1411 191.677 84.1261 191.667C81.4252 189.691 78.154 188.521 74.8129 188.331C74.7879 188.331 74.7729 188.311 74.7729 188.286C74.7779 188.266 74.8029 188.251 74.8179 188.246Z" fill="#A438A8"/>
<path d="M197.126 158.871C195.935 160.896 194.705 162.672 193.584 164.563C192.414 166.418 191.394 168.324 190.123 170.305C190.103 167.939 190.929 165.668 192.124 163.672C193.364 161.697 195.01 159.931 197.126 158.871Z" fill="#A438A8"/>
<path d="M127.321 184.089C129.932 182.819 132.818 182.314 135.689 182.224C138.56 182.194 141.466 182.589 144.122 183.759C141.231 183.914 138.49 183.849 135.724 183.934C132.948 183.959 130.212 184.124 127.321 184.089Z" fill="#A438A8"/>
<path d="M165.84 223.603C169.831 223.043 173.137 220.562 174.808 216.901C174.393 221.032 169.916 224.373 165.84 223.603Z" fill="#A438A8"/>
<path d="M190.678 196.659C191.444 198.449 192.014 200.25 192.739 202.011C193.369 203.806 194.145 205.527 194.765 207.378C193.519 205.872 192.674 204.106 191.939 202.316C191.299 200.49 190.758 198.614 190.678 196.659Z" fill="#A438A8"/>
<path d="M169.236 89.2912C166.495 90.1565 164.299 92.4323 163.279 95.1183C160.563 94.5481 157.567 95.6385 155.846 97.8142C154.126 99.99 153.765 103.161 154.951 105.672C153.78 106.357 152.925 107.533 152.535 108.833C151.81 111.259 152.83 114.15 155.016 115.42C157.202 116.691 160.358 116.051 161.728 113.92C164.119 115.115 166.95 115.405 169.531 114.715C172.112 114.025 174.428 112.374 175.908 110.149C178.024 111.339 180.765 111.329 182.866 110.114C184.966 108.903 186.352 106.537 186.382 104.111C186.392 103.181 186.207 102.226 185.702 101.445C185.196 100.665 184.341 100.08 183.411 100.05C184.606 98.4094 185.487 96.4638 185.492 94.433C185.497 92.4023 184.491 90.3016 182.691 89.3613C181.65 88.8161 180.35 88.7611 179.254 89.1712C178.334 89.5163 177.589 90.6567 176.568 90.5017C175.468 90.3316 174.388 89.2912 173.187 89.0662C171.882 88.8211 170.511 88.8911 169.236 89.2912Z" fill="#A438A8"/>
<path d="M39.31 413.3H27.48V425.27H19.43V413.3H7.6V405.53H19.43V393.49H27.48V405.53H39.31V413.3ZM46.3297 420.86L53.8897 419.46V403.71C53.8897 402.777 53.7964 402.193 53.6097 401.96C53.4697 401.68 52.9564 401.283 52.0697 400.77L46.3297 397.62L46.9597 393L59.9797 389.22L65.7197 389.71V417.22C65.7197 418.293 65.7664 418.97 65.8597 419.25C65.9997 419.53 66.3964 419.833 67.0497 420.16L72.0197 422.68L71.8097 428H46.6797L46.3297 420.86ZM92.16 429.4C86.42 429.4 82.0567 428.28 79.07 426.04C76.13 423.8 74.6133 420.533 74.52 416.24C74.52 413.533 75.1033 411.153 76.27 409.1C77.4833 407 79.21 405.273 81.45 403.92C79.63 402.52 78.3467 401.05 77.6 399.51C76.9 397.97 76.55 396.057 76.55 393.77C76.55 391.063 77.2267 388.66 78.58 386.56C79.98 384.46 81.94 382.827 84.46 381.66C86.98 380.493 89.8733 379.91 93.14 379.91C98.04 379.91 101.843 381.03 104.55 383.27C107.303 385.463 108.68 388.567 108.68 392.58C108.68 394.773 108.283 396.803 107.49 398.67C106.743 400.537 105.647 402.077 104.2 403.29C106.533 404.643 108.213 406.23 109.24 408.05C110.267 409.87 110.78 412.133 110.78 414.84C110.78 417.733 110.01 420.277 108.47 422.47C106.93 424.663 104.76 426.367 101.96 427.58C99.16 428.793 95.8933 429.4 92.16 429.4ZM96.15 399.44C97.1767 397.247 97.69 395.263 97.69 393.49C97.69 391.623 97.13 390.247 96.01 389.36C94.89 388.427 93.1633 387.96 90.83 387.96C90.4567 387.96 89.7567 388.007 88.73 388.1C88.4967 388.473 88.2867 389.08 88.1 389.92C87.9133 390.76 87.82 391.46 87.82 392.02C87.82 393.047 88.03 393.91 88.45 394.61C88.87 395.31 89.64 396.01 90.76 396.71C91.9267 397.41 93.7233 398.32 96.15 399.44ZM94.05 421.35C94.8433 421.35 96.01 421.233 97.55 421C98.4367 419.46 98.88 417.873 98.88 416.24C98.8333 415.167 98.46 414.257 97.76 413.51C97.06 412.717 96.08 412.017 94.82 411.41C93.6067 410.757 91.74 409.893 89.22 408.82L87.96 408.26C87.4 409.147 86.9333 410.197 86.56 411.41C86.2333 412.577 86.07 413.697 86.07 414.77C86.07 419.157 88.73 421.35 94.05 421.35ZM139.681 428.91C136.508 428.91 133.965 428.047 132.051 426.32C130.138 424.547 129.181 422.283 129.181 419.53C129.181 415.843 131.025 412.95 134.711 410.85C138.445 408.75 143.858 407.56 150.951 407.28C150.951 405.087 150.765 403.477 150.391 402.45C150.065 401.377 149.435 400.653 148.501 400.28C147.615 399.86 146.238 399.65 144.371 399.65C142.458 399.65 141.105 399.72 140.311 399.86L137.441 405.53L132.261 405.18C131.468 401.447 130.908 397.573 130.581 393.56C133.195 392.673 136.041 391.973 139.121 391.46C142.248 390.947 145.165 390.69 147.871 390.69C152.818 390.69 156.365 391.67 158.511 393.63C160.658 395.543 161.731 398.74 161.731 403.22V417.85C161.731 418.69 161.801 419.273 161.941 419.6C162.128 419.927 162.501 420.253 163.061 420.58L165.861 422.19L165.581 426.53C160.168 427.79 155.898 428.49 152.771 428.63C152.678 428.35 152.538 427.86 152.351 427.16C152.165 426.413 152.001 425.713 151.861 425.06C150.041 426.227 148.035 427.16 145.841 427.86C143.695 428.56 141.641 428.91 139.681 428.91ZM144.371 421C146.238 421 148.501 420.37 151.161 419.11L150.881 413.79C149.761 413.697 149.015 413.65 148.641 413.65C147.381 413.65 145.911 413.79 144.231 414.07C142.551 414.303 141.221 414.583 140.241 414.91C140.101 415.517 140.031 416.077 140.031 416.59C140.031 417.99 140.405 419.087 141.151 419.88C141.945 420.627 143.018 421 144.371 421ZM168.361 421.28L172.701 420.02V403.08C172.701 402.053 172.631 401.4 172.491 401.12C172.351 400.793 171.978 400.443 171.371 400.07L168.291 398.39L168.501 393.14L170.041 392.86C176.154 391.647 180.564 390.993 183.271 390.9C183.644 391.88 183.948 392.953 184.181 394.12C187.028 392.813 189.338 391.927 191.111 391.46C192.931 390.947 194.634 390.69 196.221 390.69C203.641 390.69 207.351 395.123 207.351 403.99V417.71C207.351 418.69 207.421 419.343 207.561 419.67C207.701 419.997 208.098 420.347 208.751 420.72L212.111 422.68L211.831 427.93H192.511L192.161 421.28L195.591 420.3V407.07C195.591 404.97 195.521 403.5 195.381 402.66C195.241 401.82 194.844 401.167 194.191 400.7C193.584 400.233 192.488 400 190.901 400C189.221 400 187.098 400.257 184.531 400.77V417.71C184.531 418.69 184.601 419.343 184.741 419.67C184.881 419.997 185.254 420.347 185.861 420.72L189.291 422.68L189.011 427.93H168.711L168.361 421.28ZM231.442 428.91C225.515 428.91 221.082 427.393 218.142 424.36C215.249 421.327 213.802 416.683 213.802 410.43C213.802 406.417 214.525 402.917 215.972 399.93C217.465 396.943 219.589 394.657 222.342 393.07C225.095 391.483 228.339 390.69 232.072 390.69C244.159 390.69 250.202 396.943 250.202 409.45C250.202 415.563 248.545 420.347 245.232 423.8C241.965 427.207 237.369 428.91 231.442 428.91ZM232.562 420.72C233.495 420.72 234.312 420.65 235.012 420.51C235.712 420.323 236.459 420.043 237.252 419.67C237.532 418.597 237.765 417.22 237.952 415.54C238.139 413.86 238.232 412.25 238.232 410.71C238.232 406.93 237.625 404.06 236.412 402.1C235.245 400.14 233.495 399.16 231.162 399.16C229.622 399.16 228.059 399.37 226.472 399.79C226.145 400.49 225.889 401.633 225.702 403.22C225.515 404.76 225.422 406.533 225.422 408.54C225.422 412.46 226.029 415.47 227.242 417.57C228.502 419.67 230.275 420.72 232.562 420.72ZM267.034 429.19C263.347 429.19 259.077 428.537 254.224 427.23C254.504 422.657 254.807 419.273 255.134 417.08L259.124 416.31L263.534 421C265.074 421.467 266.8 421.7 268.714 421.7C269.787 421.7 270.627 421.63 271.234 421.49C271.374 421.117 271.444 420.603 271.444 419.95C271.444 419.39 271.304 418.923 271.024 418.55C270.79 418.177 270.23 417.733 269.344 417.22C268.457 416.707 266.917 415.913 264.724 414.84C261.97 413.393 259.87 412.11 258.424 410.99C256.977 409.823 255.927 408.633 255.274 407.42C254.667 406.207 254.364 404.76 254.364 403.08C254.364 399.347 255.74 396.383 258.494 394.19C261.294 391.997 265.074 390.9 269.834 390.9C271.794 390.9 273.847 391.133 275.994 391.6C278.187 392.02 280.147 392.603 281.874 393.35C281.874 396.383 281.664 399.767 281.244 403.5L277.604 404.06L272.914 399.02C271.7 398.647 269.927 398.46 267.594 398.46C267.22 398.46 266.474 398.507 265.354 398.6C265.214 398.88 265.144 399.323 265.144 399.93C265.144 400.583 265.33 401.167 265.704 401.68C266.077 402.147 266.73 402.683 267.664 403.29C268.644 403.85 270.184 404.667 272.284 405.74C275.364 407.233 277.674 408.54 279.214 409.66C280.8 410.733 281.897 411.83 282.504 412.95C283.157 414.07 283.484 415.423 283.484 417.01C283.484 420.837 282.014 423.823 279.074 425.97C276.18 428.117 272.167 429.19 267.034 429.19Z" fill="white"/>
</svg>
