<svg width="2270" height="551" viewBox="0 0 2270 551" fill="none" xmlns="http://www.w3.org/2000/svg">
<g filter="url(#filter0_d)">
<path d="M534.507 111.843L534.499 111.842C513.637 110.65 492.793 118.335 477.992 131.105C460.108 122.518 437.046 122.6 419.344 131.549C401.961 140.337 390.31 157.441 389.839 175.363C380.713 177.552 372.566 182.512 366.688 188.965L366.682 188.971C353.836 203.124 352.816 225.115 366.149 239.491C372.796 246.659 382.534 251 392.443 252.355C401.104 253.539 410.336 252.503 418.255 248.65C431.855 260.375 450.035 267.917 468.981 269.743C487.875 271.567 507.448 267.678 523.643 258.918C536.077 270.009 554.648 275.444 572.03 273.174C590.801 270.722 607.963 259.265 615.352 243.52C618.166 237.533 619.812 230.395 618.117 223.273C617.057 218.816 614.596 214.555 611.019 211.266C621.052 204.649 629.947 196.072 634.789 185.387C640.814 172.093 639.617 155.323 628.17 144.081C621.523 137.543 611.63 133.908 602.053 133.791L602.046 133.791C599.72 133.766 597.464 134.148 595.478 134.577C594.475 134.793 593.482 135.036 592.557 135.262L592.449 135.288C591.545 135.51 590.707 135.715 589.881 135.897C586.269 136.694 584.182 136.711 582.624 135.936L582.613 135.93C580.045 134.661 577.759 132.378 574.681 129.187C574.601 129.104 574.52 129.02 574.439 128.935C571.645 126.038 568.186 122.45 563.779 120.077L563.775 120.074C554.987 115.354 544.875 112.451 534.507 111.843Z" fill="white" stroke="#3D195B" stroke-width="10"/>
<path d="M1421.85 392.883L1421.84 392.89C1409 407.043 1407.98 429.034 1421.31 443.41C1427.96 450.577 1437.69 454.918 1447.6 456.273C1456.26 457.458 1465.5 456.421 1473.41 452.568C1487.01 464.293 1505.19 471.836 1524.14 473.662C1543.03 475.486 1562.61 471.596 1578.8 462.836C1591.24 473.927 1609.81 479.363 1627.19 477.092C1645.96 474.64 1663.12 463.184 1670.51 447.439C1673.33 441.451 1674.97 434.313 1673.28 427.191C1672.22 422.734 1669.76 418.473 1666.18 415.185C1676.21 408.568 1685.1 399.993 1689.95 389.31C1696.01 376.003 1694.77 359.234 1683.33 348C1676.68 341.462 1666.79 337.826 1657.21 337.71L1657.21 337.71C1654.88 337.685 1652.62 338.067 1650.64 338.495C1649.64 338.712 1648.64 338.954 1647.72 339.18L1647.61 339.207C1646.7 339.428 1645.87 339.633 1645.04 339.816C1641.43 340.613 1639.34 340.629 1637.78 339.854L1637.77 339.849C1635.2 338.579 1632.92 336.296 1629.84 333.105C1629.76 333.022 1629.68 332.938 1629.6 332.854C1626.81 329.957 1623.35 326.371 1618.94 323.998C1610.15 319.247 1600.03 316.343 1589.66 315.761C1568.79 314.57 1547.95 322.254 1533.15 335.024C1515.27 326.436 1492.21 326.518 1474.5 335.467C1457.12 344.255 1445.47 361.359 1445 379.281C1435.87 381.47 1427.73 386.431 1421.85 392.883Z" fill="white" stroke="#3D195B" stroke-width="10"/>
<path d="M2173.41 422.609V524.568C2173.41 534.324 2164.18 542.252 2152.83 542.252H1798.13C1786.78 542.252 1777.55 534.324 1777.55 524.568V116.731C1777.55 106.924 1786.78 99.0469 1798.13 99.0469H2152.8C2164.15 99.0469 2173.38 106.924 2173.38 116.731V218.69C2173.38 228.446 2164.15 236.374 2152.8 236.374H1996.01V264.715H2093.71C2105.06 264.715 2114.29 272.643 2114.29 282.399V358.875C2114.29 368.682 2105.06 376.559 2093.71 376.559H1996.01V404.925H2152.8C2164.18 404.925 2173.41 412.853 2173.41 422.609Z" fill="#3D195B"/>
<path d="M2173.41 422.609V524.568C2173.41 534.324 2164.18 542.252 2152.83 542.252H1798.13C1786.78 542.252 1777.55 534.324 1777.55 524.568V116.731C1777.55 106.924 1786.78 99.0469 1798.13 99.0469H2152.8C2164.15 99.0469 2173.38 106.924 2173.38 116.731V218.69C2173.38 228.446 2164.15 236.374 2152.8 236.374H1996.01V264.715H2093.71C2105.06 264.715 2114.29 272.643 2114.29 282.399V358.875C2114.29 368.682 2105.06 376.559 2093.71 376.559H1996.01V404.925H2152.8C2164.18 404.925 2173.41 412.853 2173.41 422.609Z" stroke="#3D195B"/>
<path d="M1537.17 103.732C1615.94 121.004 1670.9 181.83 1670.9 251.742C1670.9 321.654 1615.91 382.531 1537.17 399.803C1522.88 402.917 1508.12 404.462 1493.26 404.462C1489.73 404.462 1486.73 404.436 1483.83 404.282H1404.85V524.568C1404.85 534.324 1395.68 542.252 1384.27 542.252H1206.93C1195.58 542.252 1186.36 534.324 1186.36 524.568V116.705C1186.36 106.95 1195.58 99.0215 1206.93 99.0215H1493.23C1508.09 99.0215 1522.88 100.617 1537.17 103.732Z" fill="#3D195B"/>
<path d="M1537.17 103.732C1615.94 121.004 1670.9 181.83 1670.9 251.742C1670.9 321.654 1615.91 382.531 1537.17 399.803C1522.88 402.917 1508.12 404.462 1493.26 404.462C1489.73 404.462 1486.73 404.436 1483.83 404.282H1404.85V524.568C1404.85 534.324 1395.68 542.252 1384.27 542.252H1206.93C1195.58 542.252 1186.36 534.324 1186.36 524.568V116.705C1186.36 106.95 1195.58 99.0215 1206.93 99.0215H1493.23C1508.09 99.0215 1522.88 100.617 1537.17 103.732Z" stroke="#3D195B"/>
<path d="M1107.98 518.391C1110.31 523.796 1109.44 529.897 1105.64 534.659C1101.78 539.421 1095.49 542.252 1088.72 542.252H615.769C609.03 542.252 602.71 539.421 598.847 534.659C595.013 529.897 594.115 523.796 596.511 518.391L773.878 110.553C776.873 103.629 784.57 99.0469 793.136 99.0469H911.321C919.917 99.0469 927.614 103.603 930.609 110.553L1107.98 518.391Z" fill="#3D195B"/>
<path d="M1107.98 518.391C1110.31 523.796 1109.44 529.897 1105.64 534.659C1101.78 539.421 1095.49 542.252 1088.72 542.252H615.769C609.03 542.252 602.71 539.421 598.847 534.659C595.013 529.897 594.115 523.796 596.511 518.391L773.878 110.553C776.873 103.629 784.57 99.0469 793.136 99.0469H911.321C919.917 99.0469 927.614 103.603 930.609 110.553L1107.98 518.391Z" stroke="#3D195B"/>
<path d="M518.101 116.751V524.588C518.101 534.344 508.876 542.272 497.525 542.272H379.31C367.959 542.272 358.734 534.344 358.734 524.588V323.552L277.089 410.196C273.166 414.34 267.295 416.785 261.096 416.785C254.896 416.785 249.025 414.34 245.132 410.196L163.457 323.552V524.588C163.457 534.344 154.232 542.272 142.881 542.272H24.5761C13.2248 542.272 4.00006 534.344 4.00006 524.588V116.751C4.00006 106.943 13.2248 99.0667 24.5761 99.0667H497.525C508.876 99.0667 518.101 106.969 518.101 116.751Z" fill="#3D195B"/>
<path d="M518.101 116.751V524.588C518.101 534.344 508.876 542.272 497.525 542.272H379.31C367.959 542.272 358.734 534.344 358.734 524.588V323.552L277.089 410.196C273.166 414.34 267.295 416.785 261.096 416.785C254.896 416.785 249.025 414.34 245.132 410.196L163.457 323.552V524.588C163.457 534.344 154.232 542.272 142.881 542.272H24.5761C13.2248 542.272 4.00006 534.344 4.00006 524.588V116.751C4.00006 106.943 13.2248 99.0667 24.5761 99.0667H497.525C508.876 99.0667 518.101 106.969 518.101 116.751Z" stroke="#3D195B"/>
<path d="M615.74 524.569L793.107 116.731H911.292L1088.72 524.569H615.74Z" fill="#A438A8"/>
<path d="M615.74 524.569L793.107 116.731H911.292L1088.72 524.569H615.74Z" stroke="#3D195B"/>
<path d="M497.526 524.569H379.281V273.596L261.066 399.082L142.821 273.596V524.569H24.5766V116.731H497.526V524.569Z" fill="#A438A8"/>
<path d="M497.526 524.569H379.281V273.596L261.066 399.082L142.821 273.596V524.569H24.5766V116.731H497.526V524.569Z" stroke="#3D195B"/>
<path d="M1493.23 116.731C1506.62 116.731 1519.65 118.173 1532.08 120.876C1600.01 135.754 1650.32 188.703 1650.32 251.742C1650.32 314.833 1600.01 367.781 1532.08 382.66C1519.65 385.362 1506.62 386.804 1493.23 386.804C1490.27 386.804 1487.33 386.753 1484.43 386.598H1384.3V524.569H1206.96V116.731H1493.23Z" fill="#A438A8"/>
<path d="M1493.23 116.731C1506.62 116.731 1519.65 118.173 1532.08 120.876C1600.01 135.754 1650.32 188.703 1650.32 251.742C1650.32 314.833 1600.01 367.781 1532.08 382.66C1519.65 385.362 1506.62 386.804 1493.23 386.804C1490.27 386.804 1487.33 386.753 1484.43 386.598H1384.3V524.569H1206.96V116.731H1493.23Z" stroke="#3D195B"/>
<path d="M2093.71 282.399V358.849H1975.46V422.584H2152.83V524.569H1798.13V116.731H2152.83V218.691H1975.46V282.399H2093.71Z" fill="#A438A8"/>
<path d="M2093.71 282.399V358.849H1975.46V422.584H2152.83V524.569H1798.13V116.731H2152.83V218.691H1975.46V282.399H2093.71Z" stroke="#3D195B"/>
<path d="M1012.06 122.528L1012.06 122.535C999.21 136.688 998.191 158.679 1011.52 173.055C1018.17 180.222 1027.91 184.563 1037.82 185.918C1046.48 187.103 1055.71 186.066 1063.63 182.213C1077.23 193.938 1095.41 201.481 1114.36 203.307C1133.28 205.131 1152.83 201.241 1169.02 192.482C1181.45 203.572 1200.02 209.008 1217.4 206.737C1236.18 204.285 1253.34 192.828 1260.73 177.082C1263.54 171.094 1265.19 163.957 1263.49 156.836C1262.43 152.379 1259.97 148.118 1256.39 144.83C1266.42 138.214 1275.32 129.638 1280.16 118.955C1286.22 105.648 1284.98 88.8791 1273.54 77.6446C1266.9 71.1069 1257 67.4713 1247.43 67.3549L1247.42 67.3548C1245.09 67.3295 1242.84 67.7116 1240.85 68.1404C1239.85 68.3568 1238.86 68.5992 1237.93 68.8254L1237.82 68.8521C1236.92 69.0733 1236.08 69.2782 1235.26 69.4605C1231.64 70.2578 1229.56 70.2741 1228 69.4994L1227.99 69.4939C1225.42 68.2245 1223.13 65.9411 1220.06 62.7503C1219.98 62.6672 1219.89 62.5834 1219.81 62.499C1217.02 59.6015 1213.56 56.0131 1209.15 53.6403C1200.36 48.8901 1190.21 45.9873 1179.87 45.4056C1159.01 44.2146 1138.17 51.8993 1123.37 64.669C1105.48 56.0813 1082.42 56.1632 1064.72 65.1124C1047.34 73.9003 1035.68 91.0044 1035.21 108.926C1026.09 111.115 1017.94 116.076 1012.06 122.528Z" fill="white" stroke="#3D195B" stroke-width="10"/>
<path d="M2157.05 5.12167L2157.04 5.12117C2136.18 3.9293 2115.33 11.614 2100.53 24.3843C2082.65 15.7966 2059.59 15.8785 2041.88 24.8277C2024.5 33.6157 2012.85 50.7198 2012.38 68.6416C2003.25 70.8305 1995.11 75.7913 1989.23 82.2436L1989.22 82.2503C1976.38 96.4031 1975.36 118.394 1988.69 132.77C1995.34 139.938 2005.08 144.279 2014.98 145.634C2023.64 146.818 2032.88 145.782 2040.8 141.929C2054.4 153.654 2072.58 161.196 2091.52 163.022C2110.41 164.846 2130.01 160.959 2146.19 152.199C2158.62 163.288 2177.19 168.723 2194.57 166.453C2213.34 164.001 2230.5 152.543 2237.89 136.797C2240.71 130.81 2242.35 123.673 2240.66 116.552C2239.6 112.095 2237.14 107.834 2233.56 104.545C2243.59 97.9278 2252.49 89.3507 2257.33 78.6654C2263.35 65.3718 2262.16 48.6015 2250.71 37.36C2244.06 30.8223 2234.17 27.1867 2224.59 27.0703L2224.59 27.0702C2222.26 27.0449 2220 27.427 2218.02 27.8558C2217.02 28.0722 2216.02 28.3146 2215.1 28.5408L2214.99 28.5671C2214.09 28.7885 2213.25 28.9936 2212.42 29.1759C2208.81 29.9732 2206.72 29.9895 2205.16 29.2148L2205.15 29.2093C2202.59 27.9399 2200.3 25.6564 2197.22 22.4657L2196.98 22.2143C2194.19 19.3168 2190.73 15.7284 2186.32 13.3557C2177.52 8.60096 2167.37 5.7298 2157.05 5.12167Z" fill="white" stroke="#3D195B" stroke-width="10"/>
</g>
<defs>
<filter id="filter0_d" x="6.10352e-05" y="-0.00012207" width="2269.9" height="550.272" filterUnits="userSpaceOnUse" color-interpolation-filters="sRGB">
<feFlood flood-opacity="0" result="BackgroundImageFix"/>
<feColorMatrix in="SourceAlpha" type="matrix" values="0 0 0 0 0 0 0 0 0 0 0 0 0 0 0 0 0 0 127 0"/>
<feOffset dy="4"/>
<feGaussianBlur stdDeviation="2"/>
<feColorMatrix type="matrix" values="0 0 0 0 0 0 0 0 0 0 0 0 0 0 0 0 0 0 0.25 0"/>
<feBlend mode="normal" in2="BackgroundImageFix" result="effect1_dropShadow"/>
<feBlend mode="normal" in="SourceGraphic" in2="effect1_dropShadow" result="shape"/>
</filter>
</defs>
</svg>
