<svg width="512" height="391" viewBox="0 0 512 391" fill="none" xmlns="http://www.w3.org/2000/svg">
<path d="M254.5 0.900002C245.6 3.2 236.4 11.7 233 20.7C230.1 28.2 229.9 37.7 232.6 44.9C235.1 52.2 243.3 61 250 63.9L255 66.1V74.4C255 79 255.3 84.7 255.6 87.2L256.2 91.6L240.9 92.8C200.1 96 162.9 109.5 133.7 131.7C125.6 137.8 111.1 151.9 105 159.5C100.4 165.2 99.7998 165.7 91.3998 168.4C78.4998 172.6 64.5998 178.7 46.4998 188.2C28.2998 197.8 23.9998 200.6 15.1998 209.2C-6.60018 230.5 -4.30018 262 20.3998 281.8C28.6998 288.5 49.6998 301.9 59.6998 306.9C95.7998 325 154.7 339.5 216.1 345.6C235.8 347.5 279.2 347.8 299.5 346.1C362.7 340.9 415.3 327.4 462.5 304.5C479.2 296.3 490.7 288 498.4 278.2C522 248.6 514.2 216.5 477.6 191.8C463 182.1 441.4 172.3 419.9 165.7L411.2 163L404 154.5C377 122.7 329.5 99 281.9 93.5C276.6 92.9 276.2 92.7 275.6 89.8C275.3 88.1 275 81.9 275 76.1V65.4L278.4 64.2C283.4 62.4 291.7 54.5 294.5 48.9C303 32.3 296.4 11.2 280.3 3.4C275.7 1.1 273.1 0.600002 266.1 0.300002C261.4 0.200002 256.2 0.400002 254.5 0.900002ZM87.9998 202.6C105.6 212.2 96.1998 231.5 73.9998 231.5C67.7998 231.5 65.4998 231 60.7998 228.7C41.2998 219.1 52.0998 198 75.6998 199.4C81.0998 199.7 84.1998 200.5 87.9998 202.6ZM460.4 203.1C469.1 205.5 475 211.8 475 218.8C475 223.5 471.1 228.2 464.7 231.4C449.9 238.8 430 232.1 428.3 219.2C427.5 213.1 433.1 206.5 441.6 203.5C446.3 201.8 455.1 201.6 460.4 203.1ZM150.5 242.1C166.1 245 176 255.8 173 266.8C171.7 271.9 166 277.7 159.1 280.9C154.2 283.2 152.2 283.5 143 283.5C133.8 283.5 131.8 283.2 126.9 280.9C123.9 279.5 119.7 276.6 117.7 274.5C106.3 262.8 114.4 246.7 134 242.4C141.1 240.8 143.4 240.8 150.5 242.1ZM394.9 243.5C408.3 248.2 415.2 259.9 410.2 269.6C405.2 279.4 393.3 284.7 378.6 283.7C369.2 283.1 362.9 280.7 357.2 275.6C352.1 271 350.6 267.3 351.2 260.9C352.1 252.2 360.9 244.5 373 242C378.7 240.8 389.5 241.6 394.9 243.5ZM271.6 259.1C279.1 261.9 283 264.9 286.8 270.4C292.4 278.8 290.6 287.9 281.9 295.4C274.9 301.3 268.2 303.4 256 303.4C247.5 303.4 244.4 303 239.9 301.2C224.6 295.1 217.9 281.8 224.8 270.9C226.4 268.5 228.6 265.7 229.6 264.8C232.6 262.2 242.5 257.9 247.8 257C254.4 255.8 265.4 256.8 271.6 259.1Z" fill="white"/>
<path d="M128.6 346.6C189.3 396.4 284.5 404.4 356 365.7C365.1 360.8 378.9 351.5 385 346.1L389.5 342.2L385.5 343C383.3 343.5 377.6 344.8 372.9 345.9C299.9 362.9 204.8 361.8 130.8 342.9C126.6 341.9 122.8 341 122.5 341C122.1 341 124.8 343.5 128.6 346.6Z" fill="white"/>
</svg>
